<?xml version="1.0" encoding="utf-8"?>
<!-- Generator: Adobe Illustrator 19.1.0, SVG Export Plug-In . SVG Version: 6.00 Build 0)  -->
<svg version="1.1" xmlns="http://www.w3.org/2000/svg" xmlns:xlink="http://www.w3.org/1999/xlink" x="0px" y="0px"
	 viewBox="-321 591 148 44" style="enable-background:new -321 591 148 44;" xml:space="preserve">
<style type="text/css">
	.st0{fill-rule:evenodd;clip-rule:evenodd;}
</style>
<g id="Layer_1">
	<g>
		<path d="M-177.7,634.5h-138.5c-2.6,0-4.7-2.1-4.7-4.7v-33.6c0-2.6,2.1-4.7,4.7-4.7h138.5c2.6,0,4.7,2.1,4.7,4.7l0,33.6
			C-173,632.4-175.1,634.5-177.7,634.5z M-316.3,592.5c-2.1,0-3.7,1.7-3.7,3.7v33.6c0,2,1.7,3.7,3.7,3.7h138.5
			c2.1,0,3.7-1.7,3.7-3.7l0-33.6c0-2.1-1.7-3.7-3.7-3.7H-316.3z"/>
	</g>
</g>
<g id="Layer_2">
	<g>
		<path class="st0" d="M-284.9,607.4c-1.7-2.4-4.2-2.8-5.1-2.8c-2.2-0.2-4.2,1.3-5.3,1.3c-1.1,0-2.8-1.3-4.6-1.2
			c-2.3,0-4.5,1.4-5.7,3.5c-2.5,4.3-0.6,10.7,1.7,14.1c1.2,1.7,2.6,3.6,4.4,3.5c1.8-0.1,2.4-1.1,4.6-1.1c2.1,0,2.8,1.1,4.6,1.1
			c1.9,0,3.1-1.7,4.3-3.4c1.4-2,1.9-3.9,2-4c0,0-3.7-1.4-3.7-5.7C-288,609.2-285,607.5-284.9,607.4z"/>
		<path class="st0" d="M-291.4,602.3c1-1.2,1.6-2.8,1.4-4.5c-1.4,0.1-3.1,1-4.1,2.1c-0.9,1-1.7,2.7-1.5,4.3
			C-294,604.4-292.4,603.5-291.4,602.3z"/>
		<path class="st0" d="M-266,621.4l1.4,4.3h2.5l-4.7-14.6h-2.9l-4.7,14.6h2.4l1.3-4.3H-266z M-269.1,615.7c0.3-1.2,0.5-2.1,0.7-2.8
			h0c0.4,1.4,0.6,2.4,0.7,2.8l1.2,3.8h-3.9L-269.1,615.7z"/>
		<path class="st0" d="M-257.8,630v-5.6h0c0.6,1,1.6,1.5,3,1.5c1.3,0,2.4-0.5,3.2-1.4c1-1,1.5-2.5,1.5-4.3c0-1.6-0.4-2.9-1.2-3.9
			c-0.8-1-1.9-1.5-3.1-1.5c-1.6,0-2.8,0.6-3.5,1.9h0l-0.1-1.7h-2.1c0.1,1.2,0.1,2.3,0.1,3.5V630H-257.8z M-257.8,619.6
			c0-0.2,0-0.4,0.1-0.7c0.1-0.6,0.5-1.1,0.9-1.5c0.5-0.4,1-0.6,1.6-0.6c0.9,0,1.5,0.3,2,1c0.5,0.7,0.7,1.5,0.7,2.5
			c0,1.1-0.2,2-0.7,2.7c-0.5,0.7-1.2,1-2.1,1c-0.7,0-1.4-0.3-1.8-0.8c-0.5-0.5-0.7-1.2-0.7-1.9V619.6z"/>
		<path class="st0" d="M-245.7,630v-5.6h0c0.6,1,1.6,1.5,3,1.5c1.3,0,2.4-0.5,3.2-1.4c1-1,1.5-2.5,1.5-4.3c0-1.6-0.4-2.9-1.2-3.9
			c-0.8-1-1.9-1.5-3.1-1.5c-1.6,0-2.8,0.6-3.5,1.9h0l-0.1-1.7h-2.1c0.1,1.2,0.1,2.3,0.1,3.5V630H-245.7z M-245.7,619.6
			c0-0.2,0-0.4,0.1-0.7c0.1-0.6,0.4-1.1,0.9-1.5c0.5-0.4,1-0.6,1.6-0.6c0.9,0,1.5,0.3,2,1c0.5,0.7,0.7,1.5,0.7,2.5
			c0,1.1-0.2,2-0.7,2.7c-0.5,0.7-1.2,1-2.1,1c-0.8,0-1.4-0.3-1.8-0.8c-0.5-0.5-0.7-1.2-0.7-1.9V619.6z"/>
		<path class="st0" d="M-229.6,623.9c-1.2,0-2.4-0.3-3.4-0.9l-0.5,2c1,0.6,2.2,0.9,3.8,0.9c1.7,0,3-0.4,4-1.3c0.9-0.8,1.3-1.8,1.3-3
			c0-1-0.3-1.9-0.9-2.5c-0.6-0.7-1.5-1.3-2.8-1.8c-1-0.4-1.7-0.8-2.1-1.1c-0.4-0.4-0.7-0.9-0.7-1.4c0-0.5,0.2-1,0.6-1.3
			c0.5-0.4,1.1-0.6,1.9-0.6c1,0,2,0.2,2.8,0.7l0.6-1.9c-0.9-0.5-2-0.7-3.3-0.7c-1.5,0-2.7,0.4-3.6,1.2c-0.9,0.8-1.3,1.8-1.3,3
			c0,1.8,1.3,3.2,3.8,4.2c0.9,0.3,1.6,0.7,2,1.1c0.4,0.4,0.6,0.9,0.6,1.5c0,0.7-0.2,1.2-0.7,1.6C-228,623.7-228.7,623.9-229.6,623.9
			z"/>
		<path class="st0" d="M-221.6,613.2v1.9h-1.5v1.8h1.5v5.3c0,1.3,0.3,2.3,0.8,2.8c0.5,0.6,1.2,0.8,2.2,0.8c0.8,0,1.4-0.1,1.8-0.3
			l-0.1-1.8c-0.3,0.1-0.6,0.1-1,0.1c-0.9,0-1.4-0.7-1.4-2v-5.1h2.6v-1.8h-2.6v-2.6L-221.6,613.2z"/>
		<path class="st0" d="M-206.5,624.3c0.9-1,1.4-2.4,1.4-4c0-1.6-0.4-2.9-1.3-3.9c-0.9-1-2.2-1.5-3.7-1.5c-1.6,0-2.9,0.5-3.8,1.6
			c-0.9,1-1.4,2.4-1.4,4c0,1.6,0.5,2.9,1.4,3.9c0.9,1,2.1,1.5,3.7,1.5C-208.7,625.9-207.4,625.4-206.5,624.3z M-212.4,622.9
			c-0.4-0.7-0.6-1.5-0.6-2.5c0-1,0.2-1.9,0.6-2.5c0.5-0.8,1.2-1.3,2.1-1.3c0.9,0,1.6,0.4,2.1,1.3c0.4,0.7,0.6,1.5,0.6,2.5
			c0,1-0.2,1.8-0.6,2.5c-0.5,0.9-1.2,1.3-2.1,1.3C-211.2,624.2-211.9,623.8-212.4,622.9z"/>
		<path class="st0" d="M-200.7,625.7v-5.5c0-0.8,0.2-1.5,0.6-2.1c0.4-0.6,1.1-0.9,1.9-0.9c0.3,0,0.5,0,0.7,0.1v-2.2
			c-0.2,0-0.4,0-0.6,0c-0.6,0-1.2,0.2-1.7,0.6c-0.5,0.4-0.9,1-1.2,1.7h-0.1l-0.1-2h-2c0.1,1,0.1,2.1,0.1,3.3l0,7.2H-200.7z"/>
		<path class="st0" d="M-187,619.9c0-1.3-0.3-2.4-0.9-3.3c-0.8-1.1-1.9-1.7-3.4-1.7c-1.5,0-2.8,0.6-3.7,1.7c-0.9,1.1-1.3,2.4-1.3,4
			c0,1.6,0.5,2.9,1.4,3.9c0.9,1,2.2,1.4,3.8,1.4c1.4,0,2.5-0.2,3.5-0.7l-0.4-1.6c-0.9,0.3-1.8,0.5-2.8,0.5c-0.9,0-1.7-0.2-2.3-0.7
			c-0.7-0.5-1-1.3-1-2.4h7C-187.1,620.7-187,620.3-187,619.9z M-189.3,619.3C-189.3,619.3-189.3,619.3-189.3,619.3l-4.9,0
			c0.1-0.7,0.3-1.3,0.7-1.8c0.5-0.6,1.1-1,1.9-1c0.8,0,1.5,0.3,1.9,1C-189.4,618-189.3,618.6-189.3,619.3L-189.3,619.3L-189.3,619.3
			z"/>
		<path class="st0" d="M-267.2,602c0-1.2-0.4-2-1.1-2.7c-0.6-0.5-1.6-0.8-2.8-0.8c-0.7,0-1.4,0.1-2,0.1v7.1c0.5,0.1,1,0.1,1.7,0.1
			c1.3,0,2.3-0.3,3.1-0.9C-267.6,604.3-267.2,603.3-267.2,602z M-269.1,604.2c-0.5,0.5-1.2,0.7-2,0.7c-0.4,0-0.6,0-0.8,0v-5.4
			c0.3-0.1,0.6-0.1,0.9-0.1c0.9,0,1.5,0.2,1.9,0.7c0.4,0.4,0.7,1.1,0.7,1.9C-268.4,603-268.6,603.7-269.1,604.2z"/>
		<path class="st0" d="M-261.4,605.1c0.5-0.5,0.7-1.2,0.7-2c0-0.8-0.2-1.4-0.7-1.9c-0.5-0.5-1.1-0.8-1.8-0.8c-0.8,0-1.4,0.3-1.9,0.8
			c-0.5,0.5-0.7,1.2-0.7,2c0,0.8,0.2,1.4,0.7,1.9c0.5,0.5,1.1,0.8,1.8,0.8C-262.5,605.9-261.9,605.6-261.4,605.1z M-264.3,604.4
			c-0.2-0.3-0.3-0.8-0.3-1.2c0-0.5,0.1-0.9,0.3-1.3c0.2-0.4,0.6-0.6,1.1-0.6c0.4,0,0.8,0.2,1,0.6c0.2,0.3,0.3,0.8,0.3,1.2
			s-0.1,0.9-0.3,1.2c-0.2,0.4-0.6,0.6-1,0.6C-263.7,605.1-264.1,604.9-264.3,604.4z"/>
		<g>
			<polygon class="st0" points="-252.1,600.6 -252.1,600.6 -252.1,600.6 			"/>
			<path class="st0" d="M-256.3,603.5c0.2-0.5,0.3-1.1,0.4-1.7h0c0.1,0.6,0.2,1.1,0.4,1.7l0.7,2.3h1.1l1.6-5.2h-1.1l-0.6,2.4
				c-0.2,0.6-0.3,1.2-0.4,1.7h0c-0.1-0.5-0.2-1.1-0.4-1.7l-0.7-2.4h-0.9l-0.7,2.5c-0.2,0.7-0.3,1.2-0.4,1.7h0
				c-0.1-0.5-0.2-1.1-0.4-1.7l-0.6-2.5h-1.2l1.5,5.2h1.1L-256.3,603.5z"/>
		</g>
		<path class="st0" d="M-246.2,605.8v-3.1c0-0.8-0.2-1.3-0.6-1.7c-0.3-0.3-0.7-0.5-1.2-0.5c-0.4,0-0.7,0.1-1,0.3
			c-0.3,0.2-0.5,0.4-0.6,0.6h0l-0.1-0.8h-1c0,0.5,0,1,0,1.5v3.7h1.1v-3.1c0-0.3,0.1-0.6,0.3-0.9c0.2-0.3,0.5-0.4,0.8-0.4
			c0.7,0,1,0.5,1,1.4v3H-246.2z"/>
		<rect x="-244.2" y="598.2" class="st0" width="1.1" height="7.6"/>
		<path class="st0" d="M-236.9,605.1c0.5-0.5,0.7-1.2,0.7-2c0-0.8-0.2-1.4-0.7-1.9c-0.5-0.5-1.1-0.8-1.8-0.8c-0.8,0-1.4,0.3-1.9,0.8
			c-0.5,0.5-0.7,1.2-0.7,2c0,0.8,0.2,1.4,0.7,1.9c0.4,0.5,1.1,0.8,1.8,0.8C-238,605.9-237.4,605.6-236.9,605.1z M-239.8,604.4
			c-0.2-0.3-0.3-0.8-0.3-1.2c0-0.5,0.1-0.9,0.3-1.3c0.2-0.4,0.6-0.6,1.1-0.6c0.4,0,0.8,0.2,1,0.6c0.2,0.3,0.3,0.8,0.3,1.2
			s-0.1,0.9-0.3,1.2c-0.2,0.4-0.6,0.6-1,0.6C-239.2,605.1-239.6,604.9-239.8,604.4z"/>
		<path class="st0" d="M-234.1,602.9c-0.5,0.3-0.8,0.8-0.8,1.5c0,0.4,0.1,0.8,0.4,1.1c0.3,0.3,0.7,0.5,1.2,0.5
			c0.7,0,1.2-0.2,1.5-0.7h0l0.1,0.6h1c0-0.3-0.1-0.7-0.1-1.2v-1.9c0-1.4-0.7-2.1-2-2.1c-0.7,0-1.3,0.1-1.8,0.4l0.2,0.8
			c0.4-0.3,0.8-0.4,1.3-0.4c0.7,0,1.1,0.3,1.1,1v0.1C-232.9,602.4-233.6,602.6-234.1,602.9z M-231.9,603.2v0.8c0,0.1,0,0.1,0,0.2
			c0,0.2-0.2,0.5-0.4,0.6c-0.2,0.2-0.5,0.2-0.7,0.2c-0.2,0-0.4-0.1-0.6-0.2c-0.1-0.1-0.2-0.3-0.2-0.6
			C-233.8,603.5-233.2,603.2-231.9,603.2z"/>
		<path class="st0" d="M-225.4,598.2v3h0c-0.3-0.5-0.8-0.7-1.5-0.7c-0.6,0-1.2,0.2-1.6,0.7c-0.4,0.5-0.7,1.2-0.7,2
			c0,0.8,0.2,1.4,0.6,1.9s0.9,0.7,1.6,0.7c0.8,0,1.3-0.3,1.7-1h0l0.1,0.8h1c0-0.4,0-0.9,0-1.4v-6.2H-225.4z M-225.4,603.6
			c0,0.4-0.1,0.7-0.3,0.9c-0.2,0.3-0.5,0.4-0.9,0.4c-0.4,0-0.8-0.2-1-0.5c-0.2-0.3-0.4-0.7-0.4-1.2c0-0.5,0.1-1,0.4-1.3
			c0.2-0.3,0.6-0.5,1-0.5c0.3,0,0.6,0.1,0.8,0.3c0.2,0.2,0.4,0.4,0.4,0.7c0,0.1,0,0.2,0,0.4V603.6z"/>
		<path class="st0" d="M-215,605.1c0.5-0.5,0.7-1.2,0.7-2c0-0.8-0.2-1.4-0.7-1.9c-0.5-0.5-1.1-0.8-1.8-0.8c-0.8,0-1.4,0.3-1.9,0.8
			c-0.5,0.5-0.7,1.2-0.7,2c0,0.8,0.2,1.4,0.7,1.9c0.5,0.5,1.1,0.8,1.8,0.8C-216.1,605.9-215.5,605.6-215,605.1z M-217.9,604.4
			c-0.2-0.3-0.3-0.8-0.3-1.2c0-0.5,0.1-0.9,0.3-1.3c0.2-0.4,0.6-0.6,1.1-0.6c0.4,0,0.8,0.2,1,0.6c0.2,0.3,0.3,0.8,0.3,1.2
			s-0.1,0.9-0.3,1.2c-0.2,0.4-0.6,0.6-1,0.6C-217.3,605.1-217.7,604.9-217.9,604.4z"/>
		<path class="st0" d="M-208.2,605.8v-3.1c0-0.8-0.2-1.3-0.6-1.7c-0.3-0.3-0.7-0.5-1.2-0.5c-0.4,0-0.7,0.1-1,0.3
			c-0.3,0.2-0.5,0.4-0.6,0.6h0l-0.1-0.8h-1c0,0.5,0,1,0,1.5v3.7h1.2v-3.1c0-0.3,0.1-0.6,0.3-0.9c0.2-0.3,0.5-0.4,0.8-0.4
			c0.7,0,1,0.5,1,1.4v3H-208.2z"/>
		<path class="st0" d="M-202.8,599.6v1h-0.8v0.9h0.8v2.6c0,0.7,0.1,1.1,0.4,1.4c0.3,0.3,0.6,0.4,1.1,0.4c0.4,0,0.7,0,0.9-0.1l0-0.9
			c-0.1,0-0.3,0.1-0.5,0.1c-0.4,0-0.7-0.3-0.7-1v-2.5h1.3v-0.9h-1.3v-1.3L-202.8,599.6z"/>
		<path class="st0" d="M-198.8,598.2v7.6h1.1v-3.1c0-0.2,0-0.3,0.1-0.4c0.2-0.5,0.6-0.8,1.1-0.8c0.7,0,1,0.5,1,1.4v2.9h1.1v-3.1
			c0-0.8-0.2-1.3-0.6-1.7c-0.3-0.3-0.7-0.5-1.2-0.5c-0.7,0-1.2,0.3-1.6,0.9h0v-3.1H-198.8z"/>
		<path class="st0" d="M-190.2,600.5c-0.8,0-1.4,0.3-1.8,0.8c-0.4,0.5-0.6,1.2-0.6,2c0,0.8,0.2,1.4,0.7,1.9c0.5,0.5,1.1,0.7,1.9,0.7
			c0.7,0,1.2-0.1,1.7-0.3l-0.2-0.8c-0.4,0.2-0.9,0.2-1.4,0.2c-0.5,0-0.8-0.1-1.1-0.4c-0.3-0.3-0.5-0.7-0.5-1.2h3.4
			c0-0.1,0-0.3,0-0.5c0-0.6-0.2-1.2-0.5-1.6C-188.9,600.8-189.5,600.5-190.2,600.5z M-191.6,602.6c0-0.3,0.2-0.6,0.3-0.9
			c0.2-0.3,0.5-0.5,0.9-0.5c0.4,0,0.7,0.2,0.9,0.5c0.2,0.2,0.2,0.5,0.2,0.9H-191.6z"/>
	</g>
</g>
</svg>
