<?xml version="1.0" standalone="no"?>
<!DOCTYPE svg PUBLIC "-//W3C//DTD SVG 20010904//EN"
 "http://www.w3.org/TR/2001/REC-SVG-20010904/DTD/svg10.dtd">
<svg version="1.0" xmlns="http://www.w3.org/2000/svg"
 width="500.000000pt" height="500.000000pt" viewBox="0 0 500.000000 500.000000"
 preserveAspectRatio="xMidYMid meet">
<metadata>
Created by potrace 1.11, written by Peter Selinger 2001-2013
</metadata>
<g transform="translate(0.000000,500.000000) scale(0.100000,-0.100000)"
fill="#000000" stroke="none">
<path d="M0 2500 l0 -2500 2500 0 2500 0 0 2500 0 2500 -2500 0 -2500 0 0
-2500z m4585 1979 c-91 -495 -280 -1045 -477 -1388 -151 -264 -304 -469 -497
-662 -149 -149 -248 -218 -430 -297 -237 -103 -481 -144 -634 -108 -80 19
-161 56 -212 99 l-37 31 6 105 c22 342 70 511 198 699 30 44 122 147 214 240
178 178 179 180 49 147 -145 -38 -310 -174 -404 -333 -82 -137 -175 -390 -196
-534 -4 -27 -11 -48 -15 -48 -25 0 -84 115 -106 207 -20 85 -14 321 11 433 40
179 126 393 205 511 56 82 185 211 280 278 223 158 558 272 935 321 509 65
646 96 832 185 87 43 128 70 183 121 38 36 79 82 91 101 12 19 23 32 25 30 2
-2 -7 -64 -21 -138z m-3636 -1663 c61 -32 121 -144 152 -286 27 -125 39 -280
39 -499 l0 -193 39 52 c78 104 216 198 345 235 210 61 416 -80 500 -340 104
-327 22 -866 -176 -1159 -109 -159 -241 -236 -408 -236 -140 0 -277 62 -370
167 -34 39 -41 43 -46 27 -27 -85 -80 -152 -137 -173 -41 -16 -109 -13 -135 5
-12 8 -33 36 -46 62 -89 175 -105 421 -87 1322 7 402 14 561 26 639 30 194 86
324 158 370 38 24 106 27 146 7z"/>
<path d="M1398 1596 c-26 -7 -66 -25 -90 -41 -56 -37 -157 -133 -173 -165 -7
-14 -18 -83 -25 -153 -12 -115 -12 -131 2 -155 22 -38 105 -99 157 -117 61
-20 148 -19 188 3 99 54 163 240 151 435 -11 164 -81 229 -210 193z"/>
</g>
</svg>
